<svg xmlns="http://www.w3.org/2000/svg" width="320" height="320.001" viewBox="0 0 320 320.001">
  <g id="character_play" transform="translate(-1145.5 -292.5)">
    <g id="Layer_6" data-name="Layer 6" transform="translate(1214.7 332.1)">
      <path id="패스_25" data-name="패스 25" d="M1329.654,508.636c25.238,13.462,34.9,30.75,28.809,42.167s-25.626,12.64-50.863-.822-40.759-33.632-34.669-45.049S1304.417,495.173,1329.654,508.636Z" transform="translate(-1239.588 -380.621)" fill="#fff3e1"/>
      <path id="패스_26" data-name="패스 26" d="M1368.455,485.866c17.587,9.771,25.707,28.738,18.137,42.362s-27.962,16.748-45.55,6.976-25.706-28.738-18.137-42.362S1350.868,476.094,1368.455,485.866Z" transform="translate(-1249.281 -377.187)" fill="#fff3e1"/>
      <path id="패스_27" data-name="패스 27" d="M1289.3,475.95c-3.946-3.982-7.3-5.361-16.885-18.946s-29.741-8.188-25.943,17.05,18.446,37.4,18.446,37.4l6.826,5.626s-3.185,28.874,1.155,42.741-6.508,39.982,11.807,48.534c20.554,9.6,30.909-2.667,30.4-29.067l11.108,2.466c13.672,22.59,29.348,35.827,41.6,16.734,10.914-17.014-7.264-32.358-11-46.4l-1.067-4.72" transform="translate(-1234.466 -371.102)" fill="#fff3e1" stroke="#000" stroke-linecap="round" stroke-miterlimit="10" stroke-width="2"/>
      <path id="패스_28" data-name="패스 28" d="M1395.792,538c5.066,2.19,7.479,4.654,23.479,8.79s17.951,26.3-7.466,27.494c-25.675,1.206-40.332-17.83-40.332-17.83" transform="translate(-1259.561 -388.752)" fill="#fff3e1" stroke="#000" stroke-linecap="round" stroke-miterlimit="10" stroke-width="2"/>
      <path id="패스_29" data-name="패스 29" d="M1402.518,621" transform="translate(-1265.77 -405.352)" fill="#fff" stroke="#000" stroke-miterlimit="10" stroke-width="1"/>
      <path id="패스_30" data-name="패스 30" d="M1395.093,499.5c-9.382,22.894-34.812,24.207-67.07,10.986s-46.342-30.726-36.96-53.62,38.679-42.507,70.937-29.287S1404.475,476.606,1395.093,499.5Z" transform="translate(-1242.907 -365.813)" fill="#fff3e1" stroke="#000" stroke-miterlimit="10" stroke-width="2"/>
      <circle id="타원_9" data-name="타원 9" cx="9.2" cy="9.2" r="9.2" transform="translate(70.792 86.906)" fill="#1c1c1c" stroke="#000" stroke-miterlimit="10" stroke-width="2"/>
      <circle id="타원_10" data-name="타원 10" cx="2.5" cy="2.5" r="2.5" transform="translate(83.778 94.506)" fill="#fff" stroke="#000" stroke-miterlimit="10" stroke-width="1.389"/>
      <path id="패스_31" data-name="패스 31" d="M1335.646,464.109a4.352,4.352,0,1,1-4.351-4.351A4.352,4.352,0,0,1,1335.646,464.109Z" transform="translate(-1250.655 -373.103)" fill="#fff" stroke="#000" stroke-miterlimit="10" stroke-width="1.243"/>
      <path id="패스_32" data-name="패스 32" d="M1332.989,477.643c-1.275,2.45-4.611,3.237-7.453,1.758s-4.112-4.662-2.838-7.112,4.612-3.238,7.453-1.759S1334.264,475.194,1332.989,477.643Z" transform="translate(-1249.707 -375.109)" fill="#fff"/>
      <circle id="타원_11" data-name="타원 11" cx="9.2" cy="9.2" r="9.2" transform="translate(111.912 106.916)" fill="#1c1c1c" stroke="#000" stroke-miterlimit="10" stroke-width="2"/>
      <circle id="타원_12" data-name="타원 12" cx="2.5" cy="2.5" r="2.5" transform="translate(124.898 114.516)" fill="#fff" stroke="#000" stroke-miterlimit="10" stroke-width="1.389"/>
      <path id="패스_33" data-name="패스 33" d="M1387.047,489.121a4.352,4.352,0,1,1-4.352-4.351A4.352,4.352,0,0,1,1387.047,489.121Z" transform="translate(-1260.935 -378.106)" fill="#fff" stroke="#000" stroke-miterlimit="10" stroke-width="1.243"/>
      <path id="패스_34" data-name="패스 34" d="M1384.389,502.655c-1.275,2.45-4.612,3.237-7.453,1.758s-4.113-4.663-2.838-7.113,4.611-3.237,7.453-1.758S1385.665,500.206,1384.389,502.655Z" transform="translate(-1259.987 -380.111)" fill="#fff"/>
      <path id="패스_35" data-name="패스 35" d="M1380.176,608.79" transform="translate(-1261.301 -402.91)" fill="#fff3e1" stroke="#000" stroke-miterlimit="10" stroke-width="2"/>
      <path id="패스_36" data-name="패스 36" d="M1348.883,498.5s-11.321,8.388-13.21.016" transform="translate(-1252.401 -380.852)" fill="none" stroke="#000" stroke-miterlimit="10" stroke-width="2"/>
      <path id="패스_37" data-name="패스 37" d="M1352.185,498.5s.878,14.062,8.5,10.113" transform="translate(-1255.703 -380.852)" fill="none" stroke="#000" stroke-miterlimit="10" stroke-width="2"/>
      <line id="선_4" data-name="선 4" x1="10" y1="10" transform="translate(93.348 73.648)" fill="none" stroke="#000" stroke-miterlimit="10" stroke-width="3"/>
      <line id="선_5" data-name="선 5" x2="14.058" y2="1.538" transform="translate(116.892 91.853)" fill="none" stroke="#000" stroke-miterlimit="10" stroke-width="3"/>
      <path id="패스_38" data-name="패스 38" d="M1421.253,635.667" transform="translate(-1269.517 -408.285)" fill="#fff3e1" stroke="#000" stroke-miterlimit="10" stroke-width="2"/>
      <path id="패스_39" data-name="패스 39" d="M1312.607,480.862c-1.086,2.05-5.606,1.781-10.1-.6s-7.246-5.972-6.159-8.021,5.606-1.781,10.1.6S1313.7,478.814,1312.607,480.862Z" transform="translate(-1244.489 -375.324)" fill="#ffaf73" opacity="0.4"/>
      <path id="패스_40" data-name="패스 40" d="M1399.941,523.681c-1.087,2.05-5.606,1.781-10.1-.6s-7.246-5.972-6.159-8.021,5.606-1.781,10.1.6S1401.028,521.633,1399.941,523.681Z" transform="translate(-1261.956 -383.888)" fill="#ffaf73" opacity="0.4"/>
      <path id="패스_41" data-name="패스 41" d="M1245.106,409.846c1.235,2.251-.707,5.691-4.339,7.683s-7.578,1.781-8.813-.471.709-5.691,4.341-7.683S1243.872,407.594,1245.106,409.846Z" transform="translate(-1231.583 -362.753)" fill="#ff8db0" stroke="#ff8db0" stroke-miterlimit="10" stroke-width="1"/>
      <path id="패스_42" data-name="패스 42" d="M1333.409,388.889c.354,1.725-1.613,3.588-4.4,4.159s-5.325-.362-5.679-2.087,1.613-3.587,4.4-4.159S1333.053,387.164,1333.409,388.889Z" transform="translate(-1249.924 -358.478)" fill="#a15eef" stroke="#a15eef" stroke-miterlimit="10" stroke-width="0.686"/>
      <path id="패스_43" data-name="패스 43" d="M1276.273,397.513c1.235,2.251-.707,5.691-4.34,7.683s-7.577,1.781-8.812-.471.709-5.691,4.341-7.683S1275.039,395.261,1276.273,397.513Z" transform="translate(-1237.816 -360.287)" fill="#ff8db0" stroke="#ff8db0" stroke-miterlimit="10" stroke-width="1"/>
      <path id="패스_44" data-name="패스 44" d="M1245.12,401.266s4.16-9.878-9.307-29.745l24.977-9.275c13.467,19.866,9.307,29.745,9.307,29.745" transform="translate(-1232.429 -353.601)" fill="none" stroke="#ff8db0" stroke-miterlimit="10" stroke-width="4"/>
      <line id="선_6" data-name="선 6" y1="11.6" x2="23.9" transform="translate(9.048 14.648)" fill="none" stroke="#ff8db0" stroke-miterlimit="10" stroke-width="4.71"/>
      <line id="선_7" data-name="선 7" y1="31.089" x2="3.728" transform="translate(82.41)" fill="none" stroke="#a15eef" stroke-miterlimit="10" stroke-width="3"/>
      <path id="패스_45" data-name="패스 45" d="M1338.907,352.744s3.85,4.948,6.95,6.248,8.976,6.114.138,12.907" transform="translate(-1253.048 -351.7)" fill="none" stroke="#a15eef" stroke-miterlimit="10" stroke-width="3"/>
      <path id="패스_46" data-name="패스 46" d="M1348.688,415.7l20.253-15.926,13.5-8.943s13.728-8.389,20.25-6.225,6.626,7.674,4.024,15.814-14.2,16.974-15.19,17.846a67.117,67.117,0,0,1-15.49,10.533" transform="translate(-1255.004 -358.002)" fill="#fff3e1" stroke="#000" stroke-linecap="round" stroke-miterlimit="10" stroke-width="2"/>
      <path id="패스_47" data-name="패스 47" d="M1380.654,433.1l22.583-14.311,14.157-7.857s14.344-7.285,20.677-4.616,6,8.17,2.769,16.082-15.49,15.806-16.542,16.6a67.149,67.149,0,0,1-16.27,9.285" transform="translate(-1261.397 -362.297)" fill="#fff3e1" stroke="#000" stroke-linecap="round" stroke-miterlimit="10" stroke-width="2"/>
    </g>
    <rect id="사각형_4" data-name="사각형 4" width="320" height="320.001" transform="translate(1145.5 292.5)" fill="none"/>
  </g>
</svg>
